<?xml version="1.0" encoding="UTF-8" standalone="no"?>
<!DOCTYPE svg PUBLIC "-//W3C//DTD SVG 1.1//EN" "http://www.w3.org/Graphics/SVG/1.1/DTD/svg11.dtd">
<svg width="100%" height="100%" viewBox="0 0 1000 1000" version="1.1" xmlns="http://www.w3.org/2000/svg" xmlns:xlink="http://www.w3.org/1999/xlink" xml:space="preserve" xmlns:serif="http://www.serif.com/" style="fill-rule:evenodd;clip-rule:evenodd;stroke-linejoin:round;stroke-miterlimit:2;">
    <g transform="matrix(1,0,0,1.0104,0,0.219924)">
        <rect x="-64.034" y="-21.144" width="1121.3" height="1024.14" style="fill:none;"/>
    </g>
    <g transform="matrix(2.25683,0,0,2.25683,-495.131,-22.6163)">
        <g transform="matrix(-0.435552,0.697757,-0.848297,-0.529521,915.865,118.142)">
            <rect x="158.409" y="322.709" width="526.946" height="38.001" style="fill:rgb(240,165,0);"/>
        </g>
        <path d="M589.038,251.452C575.969,320.603 515.174,372.975 442.243,372.975C424.21,372.975 406.919,369.773 390.898,363.903L461.093,251.452L589.038,251.452ZM345.129,337.07C313.133,309.659 292.846,268.969 292.846,223.578C292.846,141.124 359.789,74.182 442.243,74.182C463.318,74.182 483.38,78.555 501.573,86.445L345.129,337.07Z" style="fill:white;"/>
    </g>
</svg>
